<svg width="180" height="29" viewBox="0 0 180 29" fill="none" xmlns="http://www.w3.org/2000/svg">
    <path d="M117.493 0.739473H102.822C102.698 0.739473 102.575 0.862718 102.575 0.985964C102.205 7.64122 100.972 14.7895 99.1231 20.582V20.8285C99.2464 20.9517 99.2464 20.9517 99.3697 20.9517H104.424C104.548 20.9517 104.671 20.8285 104.671 20.8285C106.027 16.3916 107.26 10.4759 107.63 5.54605H112.438V20.8285C112.438 20.9517 112.561 21.075 112.685 21.075H117.493C117.616 21.075 117.74 20.9517 117.74 20.8285V1.10921C117.74 0.862718 117.616 0.739473 117.493 0.739473ZM179.753 0.739473H174.945C174.822 0.739473 174.698 0.862718 174.698 0.985964V16.1452C173.589 16.5149 172.603 16.5149 171.37 16.5149C168.164 16.5149 167.424 15.5289 167.424 11.3386V1.10921C167.424 0.985964 167.301 0.862718 167.178 0.862718H162.37C162.246 0.862718 162.123 0.985964 162.123 1.10921V12.0781C162.123 18.9798 164.466 21.568 170.383 21.568C173.712 21.568 177.534 20.7052 179.753 19.8425C179.876 19.8425 179.876 19.7193 179.876 19.596V1.10921C180 0.862718 179.876 0.739473 179.753 0.739473ZM77.9176 0.862718H72.9861C72.8628 0.862718 72.7395 0.985964 72.7395 0.985964C71.9998 3.94386 70.3971 8.99692 68.3012 14.2965L63.3697 0.862718C63.3697 0.739473 63.2464 0.739473 63.1231 0.739473H58.1916C58.0683 0.739473 58.0683 0.862718 57.945 0.862718C57.8217 0.985964 57.8217 0.985964 57.945 1.10921L65.3423 21.1982C64.6025 22.8004 63.8628 24.0329 63.2464 25.2653C62.7532 26.128 62.2601 27.114 61.7669 27.9767C61.6436 28.1 61.7669 28.1 61.7669 28.2232C61.8902 28.3465 61.8902 28.3465 62.0135 28.3465H67.3149C67.4382 28.3465 67.4382 28.2232 67.5614 28.2232C68.4245 26.4978 69.6573 24.0329 70.6436 21.568C73.7258 14.2965 76.3149 7.39473 78.1642 1.10921C78.1642 0.985964 78.1642 0.985964 78.0409 0.862718H77.9176ZM95.4244 16.2684C95.4244 16.1452 95.3012 16.1452 95.3012 16.1452H95.0546C93.945 16.5149 91.7258 17.0079 90.1231 17.0079C86.7943 17.0079 85.1916 16.1452 85.1916 10.9688C85.1916 6.90175 85.6847 4.92982 90.1231 4.92982C91.356 4.92982 92.5888 5.05306 94.0683 5.54605C94.1916 5.54605 94.3149 5.54605 94.4381 5.4228C95.0546 4.31359 95.671 3.08114 96.4107 1.47895V1.23245C96.4107 1.10921 96.1642 0.985964 96.1642 0.985964C94.1916 0.369736 91.8491 0 89.7532 0C82.7258 0 79.6436 3.20438 79.6436 10.7224C79.6436 18.2403 82.7258 21.568 89.7532 21.568C91.4792 21.568 94.9313 21.1982 96.6573 20.4587C96.7806 20.3355 96.7806 20.3355 96.7806 20.089L95.4244 16.2684ZM141.164 0.862718H136.233C136.109 0.862718 135.986 0.985964 135.986 0.985964C135.246 3.94386 133.644 8.99692 131.548 14.2965L126.616 0.862718C126.616 0.739473 126.493 0.739473 126.37 0.739473H121.438C121.315 0.739473 121.315 0.862718 121.192 0.862718C121.068 0.985964 121.068 0.985964 121.192 1.10921L128.589 21.1982C127.849 22.8004 127.109 23.9096 126.493 25.2653C126 26.128 125.507 27.114 125.013 27.9767C124.89 28.1 125.013 28.1 125.013 28.2232C125.137 28.3465 125.137 28.3465 125.26 28.3465H130.561C130.685 28.3465 130.685 28.2232 130.808 28.2232C131.671 26.4978 132.904 24.0329 133.89 21.568C136.972 14.2965 139.561 7.39473 141.287 1.10921C141.287 0.985964 141.287 0.985964 141.164 0.862718C141.164 0.862718 141.287 0.862718 141.164 0.862718ZM159.164 0.739473H144.986C144.863 0.739473 144.74 0.862718 144.74 0.985964V20.582C144.74 20.7052 144.863 20.8285 144.986 20.8285H149.794C149.918 20.8285 150.041 20.7052 150.041 20.582V5.4228H157.438C157.561 5.4228 157.685 5.29956 157.685 5.29956C158.301 3.94386 158.794 2.58815 159.411 1.10921V0.862718C159.287 0.862718 159.164 0.739473 159.164 0.739473Z" fill="#EE3F58"/>
    <path d="M25.6438 17.0079C22.4384 17.0079 21.4521 16.1452 21.4521 10.8456C21.4521 5.17635 22.5616 4.68337 25.6438 4.68337C28.726 4.68337 29.9589 5.17635 29.9589 10.8456C29.8356 16.2684 28.8493 17.0079 25.6438 17.0079ZM25.6438 0.123291C18.7397 0.123291 16.0274 3.08118 16.0274 10.7224C16.0274 18.4869 18.7397 21.4448 25.6438 21.4448C32.548 21.4448 35.3836 18.4869 35.3836 10.7224C35.3836 3.20443 32.548 0.123291 25.6438 0.123291ZM54.4932 16.2684C54.4932 16.1452 54.3699 16.1452 54.3699 16.1452H54.1233C53.0137 16.5149 50.7945 17.0079 49.1918 17.0079C45.863 17.0079 44.2603 16.1452 44.2603 10.9689C44.2603 6.90179 44.7534 4.92986 49.1918 4.92986C50.4247 4.92986 51.6575 5.05311 53.137 5.54609C53.2603 5.54609 53.3836 5.54609 53.5069 5.42285C54.1233 4.31364 54.7397 3.08118 55.4795 1.47899V1.2325C55.4795 1.10925 55.3562 1.10925 55.3562 1.10925C53.5069 0.493027 51.0411 0.246536 49.0685 0.246536C42.0411 0.246536 38.9589 3.45092 38.9589 10.9689C38.9589 18.4869 42.0411 21.8145 49.0685 21.8145C50.7945 21.8145 54.2466 21.4448 55.9726 20.7053C56.0959 20.582 56.0959 20.582 56.0959 20.3355L54.4932 16.2684ZM14.4247 0.739518H0.246575C0.123288 0.739518 0 0.862764 0 1.10925V20.7053C0 20.8285 0.123288 20.9518 0.246575 20.9518H5.0548C5.17808 20.9518 5.30137 20.8285 5.30137 20.7053V5.42285H12.6986C12.8219 5.42285 12.8219 5.2996 12.9452 5.2996C13.5616 3.9439 14.1781 2.46495 14.6712 1.10925V0.862764C14.6712 0.862764 14.5479 0.739518 14.4247 0.739518Z" fill="#0065B1"/>
</svg>
